<svg xmlns="http://www.w3.org/2000/svg" xmlns:xlink="http://www.w3.org/1999/xlink" x="0px" y="0px" viewBox="0 0 44 44" style="enable-background:new 0 0 44 44;" xml:space="preserve">
<g>
	<path d="M41,0H3C1.3,0,0,1.3,0,3v26c0,1.7,1.3,3,3,3h17c0.6,0,1-0.4,1-1s-0.4-1-1-1H3c-0.6,0-1-0.4-1-1V3c0-0.6,0.4-1,1-1h38   c0.6,0,1,0.4,1,1v26c0,0.6-0.4,1-1,1h-1.6l0.3-0.3c0.3-0.4,0.3-1,0-1.3L38.5,27l0.4-1.8c0.1-0.5-0.2-1-0.7-1.2l-1.7-0.6L36,21.8   c-0.2-0.5-0.7-0.8-1.2-0.7L33,21.5l-1.3-1.2c-0.4-0.3-1-0.3-1.3,0L29,21.5l-1.8-0.4c-0.5-0.1-1,0.2-1.2,0.7l-0.6,1.7L23.8,24   c-0.5,0.2-0.8,0.7-0.7,1.2l0.4,1.8l-1.2,1.3c-0.3,0.4-0.3,1,0,1.3l1.2,1.3l-0.4,1.8c-0.1,0.5,0.2,1,0.7,1.2l1.7,0.6l0.6,1.7   c0.2,0.5,0.7,0.8,1.2,0.7l1.8-0.4l1.3,1.2c0.4,0.3,1,0.3,1.3,0l1.3-1.2l1,0.2v4.6l-2.6-1.3c-0.3-0.1-0.6-0.1-0.9,0L28,41.4V39   c0-0.6-0.4-1-1-1s-1,0.4-1,1v4c0,0.3,0.2,0.7,0.5,0.9c0.3,0.2,0.7,0.2,1,0l3.6-1.8l3.6,1.8C34.7,44,34.8,44,35,44   c0.2,0,0.4-0.1,0.5-0.1c0.3-0.2,0.5-0.5,0.5-0.9v-7.1c0-0.5-0.3-0.9-0.8-1l-2.3-0.5c-0.3-0.1-0.6,0-0.9,0.2l-1.1,1l-1.1-1   c-0.2-0.2-0.6-0.3-0.9-0.2l-1.4,0.3l-0.4-1.4c-0.1-0.3-0.3-0.5-0.6-0.6l-1.4-0.4l0.3-1.4c0.1-0.3,0-0.6-0.2-0.9l-1-1.1l1-1.1   c0.2-0.2,0.3-0.6,0.2-0.9l-0.3-1.4l1.4-0.4c0.3-0.1,0.5-0.3,0.6-0.6l0.4-1.4l1.4,0.3c0.3,0.1,0.6,0,0.9-0.2l1.1-1l1.1,1   c0.2,0.2,0.6,0.3,0.9,0.2l1.4-0.3l0.4,1.4c0.1,0.3,0.3,0.5,0.6,0.6l1.4,0.4l-0.3,1.4c-0.1,0.3,0,0.6,0.2,0.9l1,1.1l-1,1.1   c-0.2,0.2-0.3,0.6-0.2,0.9l0.5,2.3c0.1,0.5,0.6,0.9,1.2,0.8c0.5-0.1,0.9-0.6,0.8-1.2L38.7,32H41c1.7,0,3-1.3,3-3V3   C44,1.3,42.7,0,41,0z"></path>
	<path d="M31,25c-2.2,0-4,1.8-4,4s1.8,4,4,4s4-1.8,4-4S33.2,25,31,25z M31,31c-1.1,0-2-0.9-2-2s0.9-2,2-2s2,0.9,2,2S32.1,31,31,31z"></path>
	<path d="M28,4H16c-0.6,0-1,0.4-1,1s0.4,1,1,1h12c0.6,0,1-0.4,1-1S28.6,4,28,4z"></path>
	<path d="M23,15c0-0.6-0.4-1-1-1H7c-0.6,0-1,0.4-1,1s0.4,1,1,1h15C22.6,16,23,15.6,23,15z"></path>
	<path d="M19,19c0-0.6-0.4-1-1-1H7c-0.6,0-1,0.4-1,1s0.4,1,1,1h11C18.6,20,19,19.6,19,19z"></path>
	<path d="M26,9c0-0.6-0.4-1-1-1h-6c-0.6,0-1,0.4-1,1s0.4,1,1,1h6C25.6,10,26,9.6,26,9z"></path>
	<path d="M26,16h6c0.6,0,1-0.4,1-1s-0.4-1-1-1h-6c-0.6,0-1,0.4-1,1S25.4,16,26,16z"></path>
	<path d="M12.8,25c-0.3,0-0.5-0.1-0.7-0.3l-1-1c-1.2-1.2-3.1-1.2-4.2,0l-0.6,0.6c-0.4,0.4-0.4,1,0,1.4s1,0.4,1.4,0l0.6-0.6   c0.4-0.4,1-0.4,1.4,0l1,1c0.6,0.6,1.3,0.9,2.1,0.9H15c0.6,0,1-0.4,1-1s-0.4-1-1-1H12.8z"></path>
	<path d="M26,19c0-0.6-0.4-1-1-1h-3c-0.6,0-1,0.4-1,1s0.4,1,1,1h3C25.6,20,26,19.6,26,19z"></path>
</g>
</svg>