  <svg xmlns="http://www.w3.org/2000/svg" xmlns:xlink="http://www.w3.org/1999/xlink" x="0px" y="0px" viewBox="0 0 44 44" style="enable-background:new 0 0 44 44;" xml:space="preserve">
<g>
	<circle cx="19" cy="15" r="1"></circle>
	<circle cx="25" cy="15" r="1"></circle>
	<path d="M35,29.4l-2.8-0.6c-0.5-0.1-1.1,0.2-1.2,0.8c-0.1,0.5,0.2,1.1,0.8,1.2l2.8,0.6c1.4,0.3,2.4,1.5,2.4,2.9V41c0,0.6-0.4,1-1,1   H8c-0.6,0-1-0.4-1-1v-6.7c0-1.4,1-2.7,2.4-2.9l5.7-1.1c0.5,3,2.9,5.3,5.9,5.7V39c0,0.6,0.4,1,1,1s1-0.4,1-1v-3.1   c3.4-0.5,6-3.4,6-6.9c0-0.6-0.4-1-1-1s-1,0.4-1,1c0,2.8-2.2,5-5,5s-5-2.2-5-5c0-0.3-0.1-0.6-0.4-0.8C16.4,28,16.1,28,15.8,28   L9,29.4c-2.3,0.5-4,2.5-4,4.9V41c0,1.7,1.3,3,3,3h28c1.7,0,3-1.3,3-3v-6.7C39,31.9,37.3,29.8,35,29.4z"></path>
	<path d="M21,21h2c0.6,0,1-0.4,1-1s-0.4-1-1-1h-2c-0.6,0-1,0.4-1,1S20.4,21,21,21z"></path>
	<path d="M13,25c0.6,0,1-0.4,1-1s-0.4-1-1-1c-1,0-2.1-0.4-3.2-1c1.4-1.1,2.3-2.5,3-4.1c0.2,1.6,0.9,3.2,1.9,4.5l0.2,0.3   c1.7,2.1,4.3,3.3,7.1,3.3s5.3-1.2,7.1-3.3l0.2-0.3c1.1-1.3,1.7-2.8,1.9-4.4c0.6,1.4,1.6,2.9,3,4c-1.1,0.6-2.2,1-3.2,1   c-0.6,0-1,0.4-1,1s0.4,1,1,1c1.8,0,3.9-0.8,5.6-2.2c0.3-0.2,0.4-0.5,0.4-0.9s-0.2-0.6-0.5-0.8c-3.1-1.7-4.1-5.3-4.3-7.3   c-0.1-0.5-0.5-0.9-1-0.9h0l-0.4,0c-0.5,0-0.9,0.4-1,0.9c-0.2,1.8-0.5,3.7-0.5,3.7c-0.1,1.3-0.7,2.5-1.5,3.5l-0.2,0.3   C26.2,23.1,24.2,24,22,24s-4.2-0.9-5.5-2.6l-0.2-0.3c-0.8-1-1.4-2.2-1.5-3.6c0,0-0.8-4.7-0.8-6.6V4.8L21.8,6c0.1,0,0.1,0,0.2,0   s0.1,0,0.2,0L30,4.8v4.4c-4.2,0.9-9.3,1-13.9,0.4c-0.5-0.1-1.1,0.3-1.1,0.8c-0.1,0.5,0.3,1.1,0.8,1.1c2,0.3,4,0.4,6.1,0.4   c3.2,0,6.5-0.3,9.3-1c0.4-0.1,0.8-0.5,0.8-1V4.5l2-0.3v5.1c-0.6,0.3-1,1-1,1.7c0,1.1,0.9,2,2,2s2-0.9,2-2c0-0.7-0.4-1.4-1-1.7V3   c0-0.5-0.4-0.9-0.8-1l-13-2c-0.1,0-0.2,0-0.3,0l-13,2C8.4,2.1,8,2.5,8,3s0.4,0.9,0.8,1L12,4.5V11v1c0,1.1-0.2,6.8-4.5,9.1   C7.2,21.3,7,21.6,7,21.9s0.1,0.7,0.4,0.9C9.1,24.2,11.2,25,13,25z M22,2l6.4,1L22,4l-6.4-1L22,2z"></path>
</g>
</svg>